<mxfile host="app.diagrams.net" modified="2022-12-13T12:39:08.386Z" agent="5.0 (Macintosh; Intel Mac OS X 10_15_7) AppleWebKit/537.36 (KHTML, like Gecko) Chrome/108.0.0.0 Safari/537.36" etag="9QQyJMY6VAiaxgeaBJKC" version="20.6.2" type="github">
  <diagram id="ty-wTeAsWj3jt4ouovkS" name="第 1 页">
    <mxGraphModel dx="1426" dy="769" grid="1" gridSize="10" guides="1" tooltips="1" connect="1" arrows="1" fold="1" page="1" pageScale="1" pageWidth="827" pageHeight="1169" math="0" shadow="0">
      <root>
        <mxCell id="0" />
        <mxCell id="1" parent="0" />
        <mxCell id="zuUX1TkPfcLToF8yyRiO-3" value="" style="rounded=1;whiteSpace=wrap;html=1;fillColor=#f5f5f5;fontColor=#333333;strokeColor=#666666;" parent="1" vertex="1">
          <mxGeometry x="120" y="190" width="640" height="320" as="geometry" />
        </mxCell>
        <mxCell id="zuUX1TkPfcLToF8yyRiO-18" style="edgeStyle=orthogonalEdgeStyle;rounded=1;orthogonalLoop=1;jettySize=auto;html=1;exitX=0.5;exitY=1;exitDx=0;exitDy=0;fontColor=#330033;entryX=0.109;entryY=0;entryDx=0;entryDy=0;entryPerimeter=0;" parent="1" source="zuUX1TkPfcLToF8yyRiO-4" target="zuUX1TkPfcLToF8yyRiO-3" edge="1">
          <mxGeometry relative="1" as="geometry" />
        </mxCell>
        <mxCell id="zuUX1TkPfcLToF8yyRiO-4" value="MsgContentCell" style="text;html=1;strokeColor=none;fillColor=none;align=center;verticalAlign=middle;whiteSpace=wrap;rounded=0;fontColor=#FF6666;" parent="1" vertex="1">
          <mxGeometry x="160" y="60" width="60" height="30" as="geometry" />
        </mxCell>
        <mxCell id="zuUX1TkPfcLToF8yyRiO-5" value="avatar" style="ellipse;whiteSpace=wrap;html=1;aspect=fixed;" parent="1" vertex="1">
          <mxGeometry x="140" y="250" width="50" height="50" as="geometry" />
        </mxCell>
        <mxCell id="zuUX1TkPfcLToF8yyRiO-6" value="nickname" style="rounded=0;whiteSpace=wrap;html=1;" parent="1" vertex="1">
          <mxGeometry x="195" y="262.5" width="140" height="25" as="geometry" />
        </mxCell>
        <mxCell id="zuUX1TkPfcLToF8yyRiO-7" value="" style="rounded=1;whiteSpace=wrap;html=1;fillColor=#ffe6cc;strokeColor=#d79b00;" parent="1" vertex="1">
          <mxGeometry x="200" y="300" width="560" height="210" as="geometry" />
        </mxCell>
        <mxCell id="zuUX1TkPfcLToF8yyRiO-8" value="grouping time" style="rounded=0;whiteSpace=wrap;html=1;" parent="1" vertex="1">
          <mxGeometry x="210" y="210" width="460" height="30" as="geometry" />
        </mxCell>
        <mxCell id="zuUX1TkPfcLToF8yyRiO-9" value="time label" style="rounded=0;whiteSpace=wrap;html=1;" parent="1" vertex="1">
          <mxGeometry x="350" y="265" width="80" height="20" as="geometry" />
        </mxCell>
        <mxCell id="zuUX1TkPfcLToF8yyRiO-10" value="&lt;br&gt;&lt;p class=&quot;p1&quot;&gt;contentContainer&lt;/p&gt;&lt;br&gt;" style="text;html=1;strokeColor=none;fillColor=none;align=center;verticalAlign=middle;whiteSpace=wrap;rounded=0;fontColor=#330033;labelBackgroundColor=none;" parent="1" vertex="1">
          <mxGeometry x="210" y="300" width="107.5" height="30" as="geometry" />
        </mxCell>
        <mxCell id="zuUX1TkPfcLToF8yyRiO-11" value="status view" style="rounded=0;whiteSpace=wrap;html=1;labelBackgroundColor=none;fillColor=#f8cecc;strokeColor=#b85450;" parent="1" vertex="1">
          <mxGeometry x="220" y="480" width="110" height="30" as="geometry" />
        </mxCell>
        <mxCell id="zuUX1TkPfcLToF8yyRiO-12" value="" style="rounded=1;whiteSpace=wrap;html=1;labelBackgroundColor=none;fillColor=#f8cecc;strokeColor=#b85450;" parent="1" vertex="1">
          <mxGeometry x="200" y="330" width="560" height="140" as="geometry" />
        </mxCell>
        <mxCell id="zuUX1TkPfcLToF8yyRiO-14" value="bubbleView" style="text;html=1;strokeColor=none;fillColor=none;align=center;verticalAlign=middle;whiteSpace=wrap;rounded=0;labelBackgroundColor=none;fontColor=#330033;" parent="1" vertex="1">
          <mxGeometry x="210" y="335" width="60" height="30" as="geometry" />
        </mxCell>
        <mxCell id="zuUX1TkPfcLToF8yyRiO-21" style="edgeStyle=orthogonalEdgeStyle;rounded=1;orthogonalLoop=1;jettySize=auto;html=1;fontColor=#330033;" parent="1" source="zuUX1TkPfcLToF8yyRiO-19" edge="1">
          <mxGeometry relative="1" as="geometry">
            <mxPoint x="360" y="330" as="targetPoint" />
          </mxGeometry>
        </mxCell>
        <mxCell id="zuUX1TkPfcLToF8yyRiO-19" value="MsgBubbleCell" style="text;html=1;strokeColor=none;fillColor=none;align=center;verticalAlign=middle;whiteSpace=wrap;rounded=0;fontColor=#FF6666;" parent="1" vertex="1">
          <mxGeometry x="330" y="60" width="60" height="30" as="geometry" />
        </mxCell>
        <mxCell id="8T0zgh9FZ-TxXxf4An5i-2" value="text" style="rounded=1;whiteSpace=wrap;html=1;" vertex="1" parent="1">
          <mxGeometry x="285" y="370" width="120" height="60" as="geometry" />
        </mxCell>
        <mxCell id="8T0zgh9FZ-TxXxf4An5i-3" value="image" style="rounded=1;whiteSpace=wrap;html=1;" vertex="1" parent="1">
          <mxGeometry x="425" y="370" width="120" height="60" as="geometry" />
        </mxCell>
        <mxCell id="8T0zgh9FZ-TxXxf4An5i-6" value="..." style="rounded=1;whiteSpace=wrap;html=1;" vertex="1" parent="1">
          <mxGeometry x="555" y="370" width="120" height="60" as="geometry" />
        </mxCell>
      </root>
    </mxGraphModel>
  </diagram>
</mxfile>
